<?xml version="1.0" standalone="no"?>
<!DOCTYPE svg PUBLIC "-//W3C//DTD SVG 20010904//EN"
 "http://www.w3.org/TR/2001/REC-SVG-20010904/DTD/svg10.dtd">
<svg version="1.0" xmlns="http://www.w3.org/2000/svg"
 width="400.000000pt" height="400.000000pt" viewBox="0 0 400.000000 400.000000"
 preserveAspectRatio="xMidYMid meet">
<metadata>
Created by potrace 1.14, written by Peter Selinger 2001-2017
</metadata>
<g transform="translate(0.000000,400.000000) scale(0.100000,-0.100000)"
fill="#000000" stroke="none">
<path d="M2128 3752 c-4 -11 -133 -95 -185 -121 -24 -12 -82 -32 -130 -45 -49
-14 -110 -31 -136 -39 l-48 -15 7 31 c14 61 6 147 -14 147 -5 0 -51 -55 -102
-122 -118 -152 -180 -216 -257 -265 -15 -9 -31 -22 -35 -27 -10 -15 -19 -2
-40 60 -25 73 -78 155 -98 152 -13 -3 -15 -28 -12 -171 1 -114 -1 -167 -9
-167 -6 0 -30 12 -55 26 -57 33 -135 57 -147 45 -9 -9 -3 -18 102 -165 l50
-69 -30 -44 c-41 -59 -80 -98 -118 -117 -32 -17 -40 -33 -19 -41 19 -7 60 -13
91 -14 36 -1 35 -11 -12 -152 -42 -123 -107 -262 -148 -316 -21 -27 -22 -34
-10 -38 14 -6 47 9 126 59 22 15 45 26 50 26 11 0 7 -61 -7 -115 -16 -60 -23
-103 -29 -176 -7 -94 7 -97 78 -19 l57 63 7 -34 c11 -53 54 -138 76 -150 28
-15 39 -3 39 42 0 21 3 39 8 39 4 0 26 -33 50 -73 39 -66 179 -264 220 -312 9
-11 44 -56 77 -100 46 -61 60 -88 60 -114 0 -38 2 -37 -117 -86 -106 -45 -162
-92 -197 -164 -17 -36 -34 -57 -46 -59 -33 -6 -52 -30 -80 -99 -14 -36 -37
-80 -51 -99 -27 -35 -36 -82 -23 -126 7 -26 4 -29 -56 -58 -34 -16 -68 -30
-75 -30 -7 0 -49 -17 -94 -39 -106 -50 -152 -101 -200 -221 -45 -113 -63 -289
-42 -404 l7 -36 1404 0 1404 0 -4 78 c-20 364 -50 446 -199 531 -25 14 -90 56
-143 92 -59 40 -130 78 -178 96 -79 28 -80 29 -87 69 -19 117 -75 210 -141
238 -24 9 -45 33 -75 82 -64 107 -121 160 -185 173 -29 6 -32 11 -35 47 -3 36
5 52 71 150 141 207 263 419 277 477 7 30 25 59 68 104 60 62 135 194 148 260
6 28 10 32 30 27 17 -4 24 -2 24 7 0 8 -29 77 -64 154 -76 166 -83 185 -63
185 18 0 115 -39 142 -57 25 -16 45 -17 45 0 0 25 -137 223 -204 295 -17 18
-24 32 -16 32 18 0 120 51 120 60 0 14 -25 27 -90 44 -36 9 -76 23 -88 30
l-24 13 29 18 c44 27 123 116 123 137 0 16 -6 18 -42 14 -24 -3 -66 -8 -94
-12 l-52 -6 19 79 c20 83 31 172 22 186 -2 4 -32 -8 -66 -27 -62 -34 -156 -70
-164 -63 -2 2 8 27 22 55 29 59 42 112 27 112 -6 0 -57 -16 -114 -35 -107 -35
-207 -59 -292 -70 -43 -5 -48 -3 -43 12 4 10 16 46 28 80 12 34 19 69 16 78
-7 16 -33 21 -39 7z"/>
</g>
</svg>
